<?xml version="1.0" encoding="UTF-8"?><svg id="Ebene_2" xmlns="http://www.w3.org/2000/svg" viewBox="0 0 72 100"><defs><style>.cls-1{stroke-width:0px;}</style></defs><g id="Ebene_1-2"><path class="cls-1" d="m66.43,20H5.57c-3.07,0-5.57,2.49-5.57,5.57v68.85c0,3.08,2.5,5.58,5.57,5.58h60.86c3.07,0,5.57-2.5,5.57-5.58V25.57c0-3.08-2.5-5.57-5.57-5.57Zm-36.61,63.37c0,1.91-1.55,3.46-3.47,3.46h-2.49c-1.92,0-3.47-1.55-3.47-3.46v-38.74c0-1.92,1.55-3.47,3.47-3.47h2.49c1.92,0,3.47,1.55,3.47,3.47v38.74Zm21.79,0c0,1.91-1.55,3.46-3.47,3.46h-2.49c-1.92,0-3.47-1.55-3.47-3.46v-38.74c0-1.92,1.55-3.47,3.47-3.47h2.49c1.92,0,3.47,1.55,3.47,3.47v38.74Z"/><path class="cls-1" d="m0,5.57v-.15C0,8.5,2.5,11,5.57,11h60.85c3.08,0,5.57-2.5,5.57-5.57v.15c0-3.08-2.5-5.57-5.57-5.57H5.57C2.5,0,0,2.5,0,5.57Z"/></g></svg>