<?xml version="1.0" encoding="UTF-8" standalone="no"?>
<!DOCTYPE svg PUBLIC "-//W3C//DTD SVG 1.1//EN" "http://www.w3.org/Graphics/SVG/1.1/DTD/svg11.dtd">
<svg width="100%" height="100%" viewBox="0 0 572 132" version="1.1" xmlns="http://www.w3.org/2000/svg" xmlns:xlink="http://www.w3.org/1999/xlink" xml:space="preserve" xmlns:serif="http://www.serif.com/" style="fill-rule:evenodd;clip-rule:evenodd;stroke-linecap:round;stroke-linejoin:round;stroke-miterlimit:1.5;">
    <g transform="matrix(1,0,0,1,-949,-2692)">
        <g id="logo">
            <g transform="matrix(0.680993,0,0,0.408505,337.011,2529.09)">
                <path d="M1000,550C1000,550 1036.78,559.889 1036.78,500C1036.78,440.111 1100,450 1100,450" style="fill:none;stroke:black;stroke-width:17.81px;"/>
            </g>
            <g transform="matrix(0.680993,0,0,0.680993,-488.823,1262.6)">
                <path d="M2237.69,2262.7C2237.69,2262.7 2281.87,2264.86 2281.87,2196.2C2281.87,2155.44 2288.83,2129.7 2312.69,2129.7" style="fill:none;stroke:black;stroke-width:14.68px;"/>
            </g>
            <g transform="matrix(10.826,0,0,10.826,-12229.8,-10086.4)">
                <path d="M1230.83,1192.38L1232.69,1192.38L1232.69,1189.17C1232.69,1188.26 1233.08,1187.66 1233.95,1187.66C1234.82,1187.66 1235.19,1188.27 1235.19,1189.15L1235.19,1192.38L1237.04,1192.38L1237.04,1188.37C1237.04,1186.79 1236.23,1185.71 1234.64,1185.71C1233.71,1185.71 1233.11,1186.1 1232.7,1186.71L1232.65,1186.71L1232.65,1185.86L1230.83,1185.86L1230.83,1192.38Z" style="fill-rule:nonzero;"/>
                <path d="M1238.01,1189.11C1238.01,1191.08 1239.43,1192.53 1241.43,1192.53C1243.46,1192.53 1244.85,1191.08 1244.85,1189.11C1244.85,1187.13 1243.46,1185.71 1241.43,1185.71C1239.42,1185.71 1238.01,1187.13 1238.01,1189.11ZM1241.43,1190.82C1240.59,1190.82 1239.97,1190.19 1239.97,1189.22C1239.97,1188.29 1240.58,1187.61 1241.43,1187.61C1242.27,1187.61 1242.91,1188.29 1242.91,1189.22C1242.91,1190.19 1242.29,1190.82 1241.43,1190.82Z" style="fill-rule:nonzero;"/>
                <path d="M1252.5,1183.26L1250.64,1183.26L1250.64,1186.75L1250.59,1186.75C1250.23,1186.07 1249.49,1185.71 1248.63,1185.71C1246.95,1185.71 1245.54,1186.95 1245.54,1189.1C1245.54,1191.27 1246.88,1192.53 1248.62,1192.53C1249.51,1192.53 1250.24,1192.16 1250.63,1191.59L1250.66,1191.59L1250.66,1192.38L1252.5,1192.38L1252.5,1183.26ZM1249.03,1187.61C1249.91,1187.61 1250.59,1188.2 1250.59,1189.21C1250.59,1190.22 1249.91,1190.82 1249.03,1190.82C1248.15,1190.82 1247.49,1190.22 1247.49,1189.22C1247.49,1188.26 1248.17,1187.61 1249.03,1187.61Z" style="fill-rule:nonzero;"/>
                <path d="M1254.81,1185.24C1255.46,1185.24 1255.95,1184.81 1255.95,1184.13C1255.95,1183.46 1255.49,1183.03 1254.81,1183.03C1254.15,1183.03 1253.67,1183.46 1253.67,1184.13C1253.67,1184.81 1254.17,1185.24 1254.81,1185.24ZM1253.89,1192.38L1255.75,1192.38L1255.75,1185.86L1253.89,1185.86L1253.89,1192.38Z" style="fill-rule:nonzero;"/>
                <path d="M1257.14,1192.38L1259,1192.38L1259,1189.89C1259,1188.38 1259.54,1187.77 1261.08,1187.83L1261.2,1185.71C1260.14,1185.71 1259.35,1186.03 1259.01,1186.73L1258.97,1186.73L1258.97,1185.86L1257.14,1185.86L1257.14,1192.38Z" style="fill-rule:nonzero;"/>
                <path d="M1263.02,1185.24C1263.67,1185.24 1264.16,1184.81 1264.16,1184.13C1264.16,1183.46 1263.69,1183.03 1263.02,1183.03C1262.36,1183.03 1261.88,1183.46 1261.88,1184.13C1261.88,1184.81 1262.37,1185.24 1263.02,1185.24ZM1262.1,1192.38L1263.96,1192.38L1263.96,1185.86L1262.1,1185.86L1262.1,1192.38Z" style="fill-rule:nonzero;"/>
                <path d="M1265.06,1192.13C1265.58,1192.34 1266.36,1192.53 1267.32,1192.53C1269.15,1192.53 1270.09,1191.79 1270.09,1190.43C1270.09,1189.33 1269.32,1188.83 1268.09,1188.6C1267.04,1188.42 1266.86,1188.32 1266.86,1188.03C1266.86,1187.73 1267.15,1187.61 1267.79,1187.61C1268.46,1187.61 1269.11,1187.76 1269.59,1187.93L1269.72,1186.05C1269.33,1185.89 1268.63,1185.71 1267.82,1185.71C1265.99,1185.71 1265.04,1186.65 1265.04,1187.88C1265.04,1189.15 1265.77,1189.62 1267.03,1189.89C1268.12,1190.13 1268.33,1190.24 1268.33,1190.53C1268.33,1190.89 1267.91,1191 1267.26,1191C1266.44,1191 1265.64,1190.83 1265.19,1190.65L1265.06,1192.13Z" style="fill-rule:nonzero;"/>
            </g>
            <g transform="matrix(0.567494,0,0,0.340496,586.708,2529.04)">
                <path d="M1000,510L1000,570C1000,586.557 991.934,600 982,600L898,600C888.066,600 880,586.557 880,570L880,510C880,493.443 888.066,480 898,480L982,480C991.934,480 1000,493.443 1000,510Z" style="fill:url(#_Linear1);"/>
            </g>
            <g transform="matrix(0.567494,0,0,0.340496,450.51,2570.15)">
                <path d="M1000,510L1000,570C1000,586.557 991.934,600 982,600L898,600C888.066,600 880,586.557 880,570L880,510C880,493.443 888.066,480 898,480L982,480C991.934,480 1000,493.443 1000,510Z" style="fill:url(#_Linear2);"/>
            </g>
            <g transform="matrix(0.567494,0,0,0.340496,467.534,2619.61)">
                <path d="M1000,510L1000,570C1000,586.557 991.934,600 982,600L898,600C888.066,600 880,586.557 880,570L880,510C880,493.443 888.066,480 898,480L982,480C991.934,480 1000,493.443 1000,510Z" style="fill:url(#_Linear3);"/>
            </g>
        </g>
    </g>
    <defs>
        <linearGradient id="_Linear1" x1="0" y1="0" x2="1" y2="0" gradientUnits="userSpaceOnUse" gradientTransform="matrix(4.40873e-15,120,-72,7.34788e-15,940,480)"><stop offset="0" style="stop-color:rgb(50,121,228);stop-opacity:1"/><stop offset="1" style="stop-color:rgb(0,68,171);stop-opacity:1"/></linearGradient>
        <linearGradient id="_Linear2" x1="0" y1="0" x2="1" y2="0" gradientUnits="userSpaceOnUse" gradientTransform="matrix(4.40873e-15,120,-72,7.34788e-15,940,480)"><stop offset="0" style="stop-color:rgb(50,121,228);stop-opacity:1"/><stop offset="1" style="stop-color:rgb(0,68,171);stop-opacity:1"/></linearGradient>
        <linearGradient id="_Linear3" x1="0" y1="0" x2="1" y2="0" gradientUnits="userSpaceOnUse" gradientTransform="matrix(4.40873e-15,120,-72,7.34788e-15,940,480)"><stop offset="0" style="stop-color:rgb(50,121,228);stop-opacity:1"/><stop offset="1" style="stop-color:rgb(0,68,171);stop-opacity:1"/></linearGradient>
    </defs>
</svg>
